<svg width="389" height="128" viewBox="0 0 389 128" fill="none" xmlns="http://www.w3.org/2000/svg">
<g clip-path="url(#clip0_221_14)">
<path d="M104 103L53 71V122L64.5001 124L83.0001 119.5L97.5001 112L104 106.5V103Z" fill="#A8A29E" fill-opacity="0.3"/>
<path d="M52.5 22V49.5L64.5001 53L70.5001 61.5V71.5L64.5001 78.5L82.5001 89.5L91.0001 75.5L93.0001 59.5L87.5001 42.5L73.0001 29L52.5 22Z" fill="#A8A29E" fill-opacity="0.3"/>
<path d="M62.2151 10.4999C30.8922 10.4999 5.50005 35.8921 5.50005 67.2149C5.50005 98.5378 30.8922 123.93 62.2151 123.93C93.5379 123.93 118.93 98.5378 118.93 67.2149C118.93 35.8921 93.5379 10.4999 62.2151 10.4999Z" stroke="#A8A29E" stroke-width="5" stroke-miterlimit="10" stroke-linecap="round"/>
<path d="M52.663 72.1879C54.658 74.1829 57.893 74.1829 59.888 72.1879C62.382 69.6939 62.382 65.6509 59.888 63.1569C56.771 60.0399 51.717 60.0399 48.6 63.1569C44.704 67.0529 44.704 73.3709 48.6 77.2669C53.471 82.1379 61.367 82.1379 66.238 77.2669C72.326 71.1789 72.326 61.3079 66.238 55.2189C58.628 47.6089 46.289 47.6089 38.679 55.2189C29.166 64.7319 29.166 80.1549 38.679 89.6679C50.57 101.559 69.849 101.559 81.741 89.6679C96.605 74.8039 96.605 50.7049 81.741 35.8409C81.741 35.8409 55.988 10.4979 21.234 28.0089" stroke="#A8A29E" stroke-width="5" stroke-miterlimit="10" stroke-linecap="round" stroke-linejoin="round"/>
<path d="M9.63281 45.7078L106 104" stroke="#A8A29E" stroke-opacity="0.3" stroke-width="3"/>
<line x1="53.5001" y1="10.0002" x2="53.5001" y2="124" stroke="#A8A29E" stroke-opacity="0.3" stroke-width="3"/>
<path d="M157.361 84.4688C157.176 82.732 156.393 81.3797 155.015 80.4119C153.649 79.4441 151.873 78.9602 149.685 78.9602C148.147 78.9602 146.828 79.1922 145.728 79.6562C144.627 80.1203 143.785 80.75 143.202 81.5455C142.619 82.3409 142.32 83.2491 142.307 84.2699C142.307 85.1184 142.499 85.8542 142.884 86.4773C143.282 87.1004 143.819 87.6307 144.495 88.0682C145.171 88.4924 145.92 88.8504 146.742 89.142C147.564 89.4337 148.392 89.679 149.228 89.8778L153.046 90.8324C154.584 91.1903 156.062 91.6742 157.481 92.2841C158.912 92.8939 160.192 93.6629 161.319 94.5909C162.459 95.5189 163.36 96.6392 164.023 97.9517C164.686 99.2642 165.017 100.802 165.017 102.565C165.017 104.952 164.408 107.053 163.188 108.869C161.968 110.672 160.205 112.084 157.898 113.105C155.605 114.113 152.827 114.616 149.566 114.616C146.397 114.616 143.646 114.126 141.313 113.145C138.993 112.164 137.177 110.732 135.864 108.849C134.565 106.967 133.862 104.673 133.756 101.969H141.015C141.121 103.387 141.558 104.567 142.327 105.509C143.096 106.45 144.097 107.152 145.33 107.616C146.576 108.08 147.968 108.312 149.506 108.312C151.11 108.312 152.516 108.074 153.722 107.597C154.942 107.106 155.896 106.43 156.586 105.568C157.275 104.693 157.626 103.672 157.64 102.506C157.626 101.445 157.315 100.57 156.705 99.8807C156.095 99.178 155.24 98.5947 154.14 98.1307C153.052 97.6534 151.78 97.2292 150.321 96.858L145.688 95.6648C142.334 94.803 139.682 93.4972 137.733 91.7472C135.798 89.9839 134.83 87.6439 134.83 84.7273C134.83 82.3276 135.48 80.2263 136.779 78.4233C138.091 76.6203 139.874 75.2216 142.128 74.2273C144.382 73.2197 146.934 72.7159 149.784 72.7159C152.675 72.7159 155.207 73.2197 157.381 74.2273C159.569 75.2216 161.285 76.607 162.532 78.3835C163.778 80.1468 164.421 82.1752 164.461 84.4688H157.361ZM184.85 83.4545V89.0227H167.29V83.4545H184.85ZM171.625 76.1364H178.824V104.812C178.824 105.78 178.97 106.523 179.261 107.04C179.566 107.544 179.964 107.888 180.455 108.074C180.945 108.259 181.489 108.352 182.085 108.352C182.536 108.352 182.947 108.319 183.318 108.253C183.703 108.187 183.994 108.127 184.193 108.074L185.406 113.702C185.022 113.834 184.472 113.98 183.756 114.139C183.053 114.298 182.191 114.391 181.171 114.418C179.368 114.471 177.743 114.199 176.298 113.602C174.853 112.992 173.707 112.051 172.858 110.778C172.023 109.506 171.612 107.915 171.625 106.006V76.1364ZM208.659 101.153V83.4545H215.858V114H208.878V108.571H208.559C207.87 110.281 206.737 111.68 205.159 112.767C203.594 113.854 201.665 114.398 199.372 114.398C197.37 114.398 195.6 113.954 194.062 113.065C192.538 112.164 191.344 110.858 190.483 109.148C189.621 107.424 189.19 105.343 189.19 102.903V83.4545H196.389V101.79C196.389 103.725 196.919 105.263 197.98 106.403C199.04 107.544 200.433 108.114 202.156 108.114C203.217 108.114 204.244 107.855 205.238 107.338C206.233 106.821 207.048 106.052 207.684 105.031C208.334 103.997 208.659 102.705 208.659 101.153ZM232.916 114.537C230.516 114.537 228.368 113.92 226.472 112.688C224.577 111.455 223.079 109.665 221.978 107.318C220.878 104.972 220.328 102.121 220.328 98.767C220.328 95.3731 220.884 92.5095 221.998 90.1761C223.125 87.8295 224.643 86.0597 226.552 84.8665C228.461 83.66 230.589 83.0568 232.936 83.0568C234.725 83.0568 236.197 83.3617 237.35 83.9716C238.504 84.5682 239.418 85.2907 240.095 86.1392C240.771 86.9744 241.294 87.7633 241.666 88.5057H241.964V73.2727H249.183V114H242.103V109.188H241.666C241.294 109.93 240.758 110.719 240.055 111.554C239.352 112.376 238.424 113.079 237.271 113.662C236.117 114.245 234.666 114.537 232.916 114.537ZM234.924 108.631C236.449 108.631 237.748 108.22 238.822 107.398C239.896 106.562 240.711 105.402 241.268 103.918C241.825 102.433 242.103 100.703 242.103 98.7273C242.103 96.7519 241.825 95.035 241.268 93.5767C240.724 92.1184 239.916 90.9848 238.842 90.1761C237.781 89.3674 236.475 88.9631 234.924 88.9631C233.32 88.9631 231.981 89.3807 230.907 90.2159C229.833 91.0511 229.025 92.2045 228.481 93.6761C227.937 95.1477 227.666 96.8314 227.666 98.7273C227.666 100.636 227.937 102.34 228.481 103.838C229.038 105.323 229.853 106.496 230.927 107.358C232.014 108.206 233.347 108.631 234.924 108.631Z" fill="#0C0A09"/>
<path d="M255.174 114V83.4545H262.373V114H255.174ZM281.419 114.597C278.436 114.597 275.851 113.94 273.664 112.628C271.476 111.315 269.779 109.479 268.573 107.119C267.38 104.759 266.783 102.002 266.783 98.8466C266.783 95.6913 267.38 92.9271 268.573 90.554C269.779 88.1809 271.476 86.3381 273.664 85.0256C275.851 83.7131 278.436 83.0568 281.419 83.0568C284.402 83.0568 286.987 83.7131 289.175 85.0256C291.362 86.3381 293.053 88.1809 294.246 90.554C295.452 92.9271 296.056 95.6913 296.056 98.8466C296.056 102.002 295.452 104.759 294.246 107.119C293.053 109.479 291.362 111.315 289.175 112.628C286.987 113.94 284.402 114.597 281.419 114.597ZM281.459 108.83C283.076 108.83 284.429 108.385 285.516 107.497C286.603 106.596 287.412 105.389 287.942 103.878C288.486 102.366 288.757 100.683 288.757 98.8267C288.757 96.9574 288.486 95.267 287.942 93.7557C287.412 92.2311 286.603 91.018 285.516 90.1165C284.429 89.215 283.076 88.7642 281.459 88.7642C279.802 88.7642 278.423 89.215 277.323 90.1165C276.236 91.018 275.42 92.2311 274.877 93.7557C274.346 95.267 274.081 96.9574 274.081 98.8267C274.081 100.683 274.346 102.366 274.877 103.878C275.42 105.389 276.236 106.596 277.323 107.497C278.423 108.385 279.802 108.83 281.459 108.83Z" fill="#514D4B"/>
<path d="M135.017 63V22.2727H150.29C153.419 22.2727 156.044 22.8163 158.165 23.9034C160.299 24.9905 161.91 26.5151 162.997 28.4773C164.098 30.4261 164.648 32.6998 164.648 35.2983C164.648 37.91 164.091 40.1771 162.977 42.0994C161.877 44.0085 160.253 45.4867 158.105 46.5341C155.957 47.5682 153.319 48.0852 150.19 48.0852H139.312V41.9602H149.196C151.026 41.9602 152.524 41.7083 153.69 41.2045C154.857 40.6875 155.719 39.9384 156.276 38.9574C156.846 37.9631 157.131 36.7434 157.131 35.2983C157.131 33.8532 156.846 32.6203 156.276 31.5994C155.705 30.5653 154.837 29.7831 153.67 29.2528C152.504 28.7093 150.999 28.4375 149.156 28.4375H142.395V63H135.017ZM156.057 44.5455L166.139 63H157.906L148.003 44.5455H156.057ZM182.526 63.5966C179.463 63.5966 176.819 62.9602 174.591 61.6875C172.377 60.4015 170.674 58.5852 169.481 56.2386C168.287 53.8788 167.691 51.1013 167.691 47.9062C167.691 44.7642 168.287 42.0066 169.481 39.6335C170.687 37.2472 172.371 35.3911 174.532 34.0653C176.693 32.7263 179.231 32.0568 182.148 32.0568C184.031 32.0568 185.807 32.3617 187.478 32.9716C189.161 33.5682 190.646 34.4962 191.932 35.7557C193.231 37.0152 194.252 38.6193 194.995 40.5682C195.737 42.5038 196.108 44.8106 196.108 47.4886V49.696H171.071V44.8438H189.208C189.195 43.465 188.896 42.2386 188.313 41.1648C187.73 40.0777 186.914 39.2225 185.867 38.5994C184.833 37.9763 183.626 37.6648 182.248 37.6648C180.776 37.6648 179.483 38.0227 178.37 38.7386C177.256 39.4413 176.388 40.3693 175.765 41.5227C175.155 42.6629 174.843 43.9157 174.83 45.2812V49.517C174.83 51.2936 175.155 52.8182 175.804 54.0909C176.454 55.3504 177.362 56.3182 178.529 56.9943C179.695 57.6572 181.061 57.9886 182.625 57.9886C183.673 57.9886 184.621 57.8428 185.469 57.5511C186.318 57.2462 187.053 56.8021 187.677 56.2188C188.3 55.6354 188.77 54.9129 189.088 54.0511L195.81 54.8068C195.386 56.5833 194.577 58.1345 193.384 59.4602C192.204 60.7727 190.693 61.7936 188.85 62.5227C187.007 63.2386 184.899 63.5966 182.526 63.5966ZM207.081 53.4148L207.061 44.7244H208.215L219.192 32.4545H227.604L214.101 47.4886H212.609L207.081 53.4148ZM200.519 63V22.2727H207.717V63H200.519ZM219.689 63L209.746 49.0994L214.598 44.0284L228.3 63H219.689ZM250.19 50.1534V32.4545H257.389V63H250.409V57.571H250.091C249.401 59.2812 248.268 60.6799 246.69 61.767C245.126 62.8542 243.197 63.3977 240.903 63.3977C238.901 63.3977 237.131 62.9536 235.594 62.0653C234.069 61.1638 232.876 59.858 232.014 58.1477C231.152 56.4242 230.721 54.3428 230.721 51.9034V32.4545H237.92V50.7898C237.92 52.7254 238.451 54.2633 239.511 55.4034C240.572 56.5436 241.964 57.1136 243.687 57.1136C244.748 57.1136 245.775 56.8551 246.77 56.3381C247.764 55.821 248.579 55.0521 249.216 54.0312C249.865 52.9972 250.19 51.7045 250.19 50.1534ZM263.112 63V32.4545H270.092V37.5455H270.41C270.967 35.7822 271.921 34.4233 273.274 33.4688C274.639 32.5009 276.197 32.017 277.947 32.017C278.345 32.017 278.789 32.0369 279.279 32.0767C279.783 32.1032 280.201 32.1496 280.532 32.2159V38.8381C280.227 38.732 279.743 38.6392 279.08 38.5597C278.431 38.4669 277.801 38.4205 277.191 38.4205C275.879 38.4205 274.699 38.7055 273.651 39.2756C272.617 39.8324 271.802 40.608 271.205 41.6023C270.609 42.5966 270.311 43.7434 270.311 45.0426V63H263.112ZM307.777 40.5284L301.214 41.2443C301.029 40.5814 300.704 39.9583 300.24 39.375C299.789 38.7917 299.179 38.321 298.41 37.9631C297.641 37.6051 296.7 37.4261 295.587 37.4261C294.088 37.4261 292.829 37.7509 291.808 38.4006C290.801 39.0502 290.303 39.892 290.317 40.9261C290.303 41.8144 290.628 42.5369 291.291 43.0938C291.967 43.6506 293.081 44.108 294.632 44.4659L299.842 45.5795C302.732 46.2027 304.88 47.1903 306.285 48.5426C307.704 49.8949 308.42 51.6648 308.433 53.8523C308.42 55.7746 307.856 57.4716 306.743 58.9432C305.642 60.4015 304.111 61.5417 302.149 62.3636C300.187 63.1856 297.933 63.5966 295.388 63.5966C291.649 63.5966 288.64 62.8144 286.359 61.25C284.079 59.6723 282.72 57.4782 282.283 54.6676L289.302 53.9915C289.621 55.3703 290.297 56.411 291.331 57.1136C292.365 57.8163 293.711 58.1676 295.368 58.1676C297.078 58.1676 298.45 57.8163 299.484 57.1136C300.532 56.411 301.055 55.5426 301.055 54.5085C301.055 53.6335 300.717 52.911 300.041 52.3409C299.378 51.7708 298.344 51.3333 296.939 51.0284L291.729 49.9347C288.799 49.3248 286.631 48.2973 285.226 46.8523C283.82 45.3939 283.124 43.5511 283.138 41.3239C283.124 39.4413 283.635 37.8106 284.669 36.4318C285.716 35.0398 287.168 33.9659 289.024 33.2102C290.893 32.4413 293.048 32.0568 295.487 32.0568C299.067 32.0568 301.884 32.8191 303.939 34.3438C306.007 35.8684 307.286 37.9299 307.777 40.5284ZM365.2 45.1023V63H358.001V32.4545H364.882V37.6449H365.24C365.942 35.9347 367.063 34.5758 368.6 33.5682C370.152 32.5606 372.067 32.0568 374.348 32.0568C376.456 32.0568 378.292 32.5076 379.856 33.4091C381.434 34.3106 382.654 35.6165 383.515 37.3267C384.39 39.0369 384.821 41.1117 384.808 43.5511V63H377.609V44.6648C377.609 42.6231 377.079 41.0256 376.018 39.8722C374.971 38.7187 373.519 38.142 371.663 38.142C370.404 38.142 369.283 38.4205 368.302 38.9773C367.334 39.5208 366.572 40.3097 366.015 41.3438C365.472 42.3778 365.2 43.6307 365.2 45.1023Z" fill="#0C0A09"/>
<path d="M312.689 63V32.4545H319.888V63H312.689ZM338.935 63.5966C335.952 63.5966 333.366 62.9403 331.179 61.6278C328.991 60.3153 327.294 58.4792 326.088 56.1193C324.895 53.7595 324.298 51.0019 324.298 47.8466C324.298 44.6913 324.895 41.9271 326.088 39.554C327.294 37.1809 328.991 35.3381 331.179 34.0256C333.366 32.7131 335.952 32.0568 338.935 32.0568C341.918 32.0568 344.503 32.7131 346.69 34.0256C348.878 35.3381 350.568 37.1809 351.761 39.554C352.968 41.9271 353.571 44.6913 353.571 47.8466C353.571 51.0019 352.968 53.7595 351.761 56.1193C350.568 58.4792 348.878 60.3153 346.69 61.6278C344.503 62.9403 341.918 63.5966 338.935 63.5966ZM338.974 57.8295C340.592 57.8295 341.944 57.3854 343.031 56.4972C344.118 55.5956 344.927 54.3892 345.457 52.8778C346.001 51.3665 346.273 49.6828 346.273 47.8267C346.273 45.9574 346.001 44.267 345.457 42.7557C344.927 41.2311 344.118 40.018 343.031 39.1165C341.944 38.215 340.592 37.7642 338.974 37.7642C337.317 37.7642 335.938 38.215 334.838 39.1165C333.751 40.018 332.936 41.2311 332.392 42.7557C331.862 44.267 331.597 45.9574 331.597 47.8267C331.597 49.6828 331.862 51.3665 332.392 52.8778C332.936 54.3892 333.751 55.5956 334.838 56.4972C335.938 57.3854 337.317 57.8295 338.974 57.8295Z" fill="#514D4B"/>
</g>
<defs>
<clipPath id="clip0_221_14">
<rect width="389" height="128" fill="white"/>
</clipPath>
</defs>
</svg>
