<svg width="117" height="117" viewBox="0 0 117 117" fill="none" xmlns="http://www.w3.org/2000/svg">
<g clip-path="url(#clip0_203_104)">
<rect width="116.43" height="116.43" fill="#0C0A09"/>
<g clip-path="url(#clip1_203_104)">
<path d="M58.215 114.93C89.5378 114.93 114.93 89.5378 114.93 58.215C114.93 26.8922 89.5378 1.5 58.215 1.5C26.8922 1.5 1.5 26.8922 1.5 58.215C1.5 89.5378 26.8922 114.93 58.215 114.93Z" stroke="#A8A29E" stroke-opacity="0.25" stroke-width="3" stroke-miterlimit="10" stroke-linecap="round"/>
<path d="M67.767 53.242C65.772 51.247 62.537 51.247 60.542 53.242C58.048 55.736 58.048 59.779 60.542 62.273C63.659 65.39 68.713 65.39 71.83 62.273C75.726 58.377 75.726 52.059 71.83 48.163C66.959 43.292 59.063 43.292 54.192 48.163C48.104 54.251 48.104 64.122 54.192 70.211C61.802 77.821 74.141 77.821 81.751 70.211C91.264 60.698 91.264 45.275 81.751 35.762C69.86 23.871 50.581 23.871 38.689 35.762C23.825 50.626 23.825 74.725 38.689 89.589C38.689 89.589 64.442 114.932 99.196 97.421" stroke="#A8A29E" stroke-opacity="0.25" stroke-width="3" stroke-miterlimit="10" stroke-linecap="round" stroke-linejoin="round"/>
</g>
<path d="M25.6705 93V23.1818H50.5568C55.9659 23.1818 60.4545 24.1136 64.0227 25.9773C67.6136 27.8409 70.2955 30.4205 72.0682 33.7159C73.8409 36.9886 74.7273 40.7727 74.7273 45.0682C74.7273 49.3409 73.8295 53.1023 72.0341 56.3523C70.2614 59.5795 67.5795 62.0909 63.9886 63.8864C60.4205 65.6818 55.9318 66.5795 50.5227 66.5795H31.6705V57.5114H49.5682C52.9773 57.5114 55.75 57.0227 57.8864 56.0455C60.0455 55.0682 61.625 53.6477 62.625 51.7841C63.625 49.9205 64.125 47.6818 64.125 45.0682C64.125 42.4318 63.6136 40.1477 62.5909 38.2159C61.5909 36.2841 60.0114 34.8068 57.8523 33.7841C55.7159 32.7386 52.9091 32.2159 49.4318 32.2159H36.2045V93H25.6705ZM60.1364 61.5L77.3864 93H65.3864L48.4773 61.5H60.1364ZM90.5632 93.6477C88.6995 93.6477 87.0973 92.9886 85.7564 91.6705C84.4155 90.3295 83.745 88.7159 83.745 86.8295C83.745 84.9659 84.4155 83.375 85.7564 82.0568C87.0973 80.7159 88.6995 80.0455 90.5632 80.0455C92.4268 80.0455 94.0291 80.7159 95.37 82.0568C96.7109 83.375 97.3814 84.9659 97.3814 86.8295C97.3814 88.0795 97.0632 89.2273 96.4268 90.2727C95.8132 91.2955 94.995 92.1136 93.9723 92.7273C92.9495 93.3409 91.8132 93.6477 90.5632 93.6477Z" fill="#FAFAF9"/>
</g>
<defs>
<clipPath id="clip0_203_104">
<rect width="116.43" height="116.43" fill="white"/>
</clipPath>
<clipPath id="clip1_203_104">
<rect width="116.43" height="116.43" fill="white"/>
</clipPath>
</defs>
</svg>
